<?xml version="1.0" standalone="no"?>
<!DOCTYPE svg PUBLIC "-//W3C//DTD SVG 20010904//EN"
 "http://www.w3.org/TR/2001/REC-SVG-20010904/DTD/svg10.dtd">
<svg version="1.0" xmlns="http://www.w3.org/2000/svg"
 width="512.000000pt" height="512.000000pt" viewBox="0 0 512.000000 512.000000"
 preserveAspectRatio="xMidYMid meet">
<metadata>
Created by potrace 1.14, written by Peter Selinger 2001-2017
</metadata>
<g transform="translate(0.000000,512.000000) scale(0.100000,-0.100000)"
fill="#000000" stroke="none">
<path d="M1395 5056 c-41 -18 -83 -69 -90 -109 -7 -38 4 -71 50 -147 18 -30
42 -71 53 -90 29 -53 344 -600 460 -801 56 -97 102 -184 102 -193 0 -13 -35
-36 -55 -36 -2 0 -25 39 -52 88 -28 48 -166 287 -307 532 -142 245 -268 463
-281 485 -37 65 -68 87 -126 93 -63 6 -110 -15 -139 -63 -39 -64 -30 -92 98
-315 160 -279 455 -788 509 -879 24 -41 42 -81 41 -90 -2 -8 -16 -18 -31 -22
-34 -9 -19 -33 -270 406 -298 521 -418 729 -430 743 -37 46 -126 56 -183 22
-43 -27 -64 -67 -64 -123 0 -45 50 -137 385 -712 48 -82 125 -215 170 -295 46
-80 139 -242 208 -360 l125 -215 193 -82 c107 -45 201 -86 210 -92 9 -5 47
-63 85 -128 37 -65 111 -192 164 -283 123 -209 278 -477 457 -790 78 -135 210
-364 294 -510 84 -146 220 -382 302 -525 176 -306 193 -333 250 -379 133 -109
317 -127 462 -46 61 34 55 48 -185 455 -43 72 -147 252 -233 400 -85 149 -188
326 -227 395 -40 69 -151 262 -247 430 -96 168 -178 310 -183 315 -4 6 -94
161 -200 345 -107 184 -222 384 -256 444 -56 97 -63 113 -58 150 2 22 13 111
24 196 11 85 20 170 20 189 0 33 -81 179 -490 886 -70 121 -178 308 -240 415
-154 266 -155 267 -200 290 -45 23 -73 25 -115 6z m146 -216 c37 -63 110 -191
164 -285 54 -93 130 -226 170 -295 40 -69 122 -210 182 -315 60 -104 147 -253
192 -330 45 -77 83 -149 84 -160 3 -28 -12 -154 -29 -255 -8 -47 -14 -111 -14
-144 0 -56 4 -66 99 -230 54 -94 201 -349 326 -566 125 -217 300 -521 390
-675 89 -154 196 -338 237 -410 41 -71 100 -173 130 -225 30 -52 119 -207 198
-345 79 -137 161 -278 182 -313 21 -34 38 -66 38 -71 0 -15 -29 -21 -106 -21
-120 0 -205 52 -273 169 -86 147 -340 587 -434 751 -55 96 -152 265 -217 375
-111 190 -515 890 -706 1225 -74 129 -95 158 -124 172 -19 9 -115 51 -212 93
l-177 77 -82 142 c-45 77 -103 177 -129 221 -26 44 -89 154 -140 245 -51 91
-105 185 -120 210 -15 25 -71 122 -125 215 -54 94 -133 231 -176 305 -43 74
-81 142 -84 150 -8 24 18 54 41 46 19 -6 44 -47 349 -576 282 -489 357 -615
375 -634 23 -23 31 -20 153 51 53 31 79 52 83 69 5 18 -27 79 -139 271 -281
482 -547 951 -547 966 0 8 6 20 14 26 25 21 50 -3 104 -96 27 -48 96 -167 152
-263 56 -96 185 -319 286 -495 101 -176 190 -327 197 -336 26 -34 49 -30 147
29 125 75 125 74 24 245 -43 73 -126 215 -184 317 -59 102 -175 302 -258 446
-181 313 -179 308 -162 329 28 34 53 13 121 -105z"/>
<path d="M3855 4936 c-97 -31 -253 -113 -398 -209 -88 -59 -154 -113 -238
-196 -217 -217 -331 -424 -405 -731 -25 -104 -28 -133 -28 -305 0 -191 3 -220
45 -390 l20 -81 -70 -119 c-75 -127 -86 -166 -50 -185 43 -23 61 -6 147 141
48 84 82 153 82 169 0 15 -7 46 -15 70 -8 23 -24 92 -36 153 -19 97 -21 134
-16 272 8 228 40 359 137 562 119 252 301 442 590 619 269 164 428 185 570 73
119 -94 154 -254 131 -594 -15 -217 -50 -357 -131 -532 -162 -348 -498 -634
-856 -729 -159 -42 -137 -20 -301 -304 -145 -250 -147 -253 -139 -283 7 -30
44 -44 73 -29 10 6 79 117 152 247 l135 236 55 15 c180 49 400 152 526 247 97
72 249 227 318 324 141 199 236 444 267 692 18 143 16 409 -4 516 -24 121 -54
182 -127 249 -129 119 -275 154 -434 102z"/>
<path d="M2269 2008 c-17 -13 -40 -52 -258 -430 -260 -453 -631 -1097 -710
-1233 -45 -77 -81 -147 -81 -157 0 -28 73 -74 139 -88 92 -19 184 -10 263 27
115 54 152 98 304 362 75 130 148 254 161 276 185 310 483 845 483 868 0 37
-39 57 -71 35 -12 -8 -79 -113 -149 -234 -352 -611 -574 -994 -613 -1059 -62
-102 -129 -154 -226 -174 -54 -11 -147 -5 -157 10 -2 4 68 133 157 286 89 153
213 366 274 473 62 107 145 251 185 320 182 311 371 647 377 669 3 13 1 31 -4
40 -13 21 -53 25 -74 9z"/>
</g>
</svg>
